<svg id="visual" viewBox="0 0 900 450" width="900" height="450" xmlns="http://www.w3.org/2000/svg" xmlns:xlink="http://www.w3.org/1999/xlink" version="1.1"><path d="M0 235L39 235L39 224L78 224L78 259L117 259L117 219L157 219L157 208L196 208L196 248L235 248L235 241L274 241L274 244L313 244L313 228L352 228L352 227L391 227L391 254L430 254L430 210L470 210L470 217L509 217L509 244L548 244L548 256L587 256L587 216L626 216L626 237L665 237L665 258L704 258L704 222L743 222L743 227L783 227L783 208L822 208L822 253L861 253L861 244L900 244L900 208L900 451L900 451L861 451L861 451L822 451L822 451L783 451L783 451L743 451L743 451L704 451L704 451L665 451L665 451L626 451L626 451L587 451L587 451L548 451L548 451L509 451L509 451L470 451L470 451L430 451L430 451L391 451L391 451L352 451L352 451L313 451L313 451L274 451L274 451L235 451L235 451L196 451L196 451L157 451L157 451L117 451L117 451L78 451L78 451L39 451L39 451L0 451Z" fill="#ee07e2"></path><path d="M0 311L39 311L39 282L78 282L78 271L117 271L117 309L157 309L157 310L196 310L196 290L235 290L235 289L274 289L274 292L313 292L313 302L352 302L352 294L391 294L391 304L430 304L430 282L470 282L470 268L509 268L509 268L548 268L548 292L587 292L587 294L626 294L626 297L665 297L665 273L704 273L704 275L743 275L743 291L783 291L783 294L822 294L822 304L861 304L861 274L900 274L900 294L900 451L900 451L861 451L861 451L822 451L822 451L783 451L783 451L743 451L743 451L704 451L704 451L665 451L665 451L626 451L626 451L587 451L587 451L548 451L548 451L509 451L509 451L470 451L470 451L430 451L430 451L391 451L391 451L352 451L352 451L313 451L313 451L274 451L274 451L235 451L235 451L196 451L196 451L157 451L157 451L117 451L117 451L78 451L78 451L39 451L39 451L0 451Z" fill="#d906cf"></path><path d="M0 348L39 348L39 355L78 355L78 326L117 326L117 330L157 330L157 317L196 317L196 360L235 360L235 360L274 360L274 356L313 356L313 339L352 339L352 323L391 323L391 329L430 329L430 316L470 316L470 351L509 351L509 334L548 334L548 363L587 363L587 357L626 357L626 339L665 339L665 321L704 321L704 368L743 368L743 319L783 319L783 337L822 337L822 317L861 317L861 357L900 357L900 351L900 451L900 451L861 451L861 451L822 451L822 451L783 451L783 451L743 451L743 451L704 451L704 451L665 451L665 451L626 451L626 451L587 451L587 451L548 451L548 451L509 451L509 451L470 451L470 451L430 451L430 451L391 451L391 451L352 451L352 451L313 451L313 451L274 451L274 451L235 451L235 451L196 451L196 451L157 451L157 451L117 451L117 451L78 451L78 451L39 451L39 451L0 451Z" fill="#c506bb"></path><path d="M0 380L39 380L39 388L78 388L78 381L117 381L117 410L157 410L157 391L196 391L196 408L235 408L235 415L274 415L274 404L313 404L313 392L352 392L352 390L391 390L391 420L430 420L430 379L470 379L470 374L509 374L509 379L548 379L548 393L587 393L587 397L626 397L626 396L665 396L665 386L704 386L704 410L743 410L743 418L783 418L783 387L822 387L822 391L861 391L861 409L900 409L900 378L900 451L900 451L861 451L861 451L822 451L822 451L783 451L783 451L743 451L743 451L704 451L704 451L665 451L665 451L626 451L626 451L587 451L587 451L548 451L548 451L509 451L509 451L470 451L470 451L430 451L430 451L391 451L391 451L352 451L352 451L313 451L313 451L274 451L274 451L235 451L235 451L196 451L196 451L157 451L157 451L117 451L117 451L78 451L78 451L39 451L39 451L0 451Z" fill="#b005a8"></path></svg>